<?xml version="1.0" encoding="UTF-8" standalone="no"?>
<!-- Created with Inkscape (http://www.inkscape.org/) -->

<svg
   width="3.1773212mm"
   height="3.9997721mm"
   viewBox="0 0 3.1773212 3.9997721"
   version="1.1"
   id="svg1"
   xml:space="preserve"
   xmlns="http://www.w3.org/2000/svg"
   xmlns:svg="http://www.w3.org/2000/svg"><defs
     id="defs1" /><path
     stroke="none"
     d="M 1.6124479,1.6975808 1.1281996,1.2609627 Q 1.01309,1.1537906 0.98927484,1.0426523 0.97339984,0.97120692 0.99324359,0.89579009 L 1.0448453,0.77274297 1.2750592,0.37581506 Q 1.3901688,0.1813225 1.5965703,0.08606191 L 1.747404,0.03049148 Q 2.0649436,-0.05683161 2.3467593,0.10590831 2.6285776,0.26864558 2.7198721,0.5901593 l 0.019844,0.10716948 q 0.019844,0.21830771 0.1270132,0.42074042 0.047633,0.087323 0.1548024,0.186555 0.091292,0.083354 0.091292,0.2183077 0.011906,0.1389248 -0.079386,0.2381568 L 2.914362,1.8484144 2.8071898,1.8682582 Q 2.6801766,1.8761957 2.5888821,1.7928413 2.4817127,1.6936094 2.4102672,1.5824711 L 1.9220475,2.4279234 Q 1.8545705,2.543033 1.7315237,2.5787544 h -0.05557 L 1.4933669,2.5469991 1.4814607,2.5350928 Q 1.4020777,2.4874625 1.3623823,2.4001395 L 1.3425385,2.3564753 Q 1.3068145,2.2254906 1.3742912,2.1103837 L 1.6124479,1.6975808 m 1.4448076,0.3453235 q 0.1309873,0.234188 0.1190784,0.5160037 v 0.00794 0.015901 0.067479 0.067477 0.00794 0.015875 q 0.023813,0.5715695 -0.5477563,0.9565885 l -0.011906,0.00794 q -0.4207407,0.2937221 -1.0280362,0.2937221 -0.60729806,0 -1.02803847,-0.2937246 l 0.003969,0.00397 Q -0.02288339,3.3249931 9.3174837e-4,2.7415128 V 2.7177003 2.650221 2.5827443 2.5589318 Q -0.02288075,1.9754515 0.56456568,1.5904324 l 0.0476303,-0.023813 Q 0.76302964,1.467388 0.93767845,1.4078488 l 0.03175,0.027786 0.11114345,0.099229 q -0.18655764,0.05954 -0.34135741,0.1667095 v -0.00397 Q 0.30259379,1.9833916 0.31847144,2.4120722 0.3026229,2.8407501 0.73921449,3.1265371 1.0885068,3.3646939 1.5886354,3.3646939 q 0.500126,0 0.8454523,-0.2381568 l 0.00397,-0.00397 Q 2.8746745,2.8367813 2.8587995,2.4120722 2.866737,2.2493296 2.8071978,2.1104075 l 0.015901,-0.00397 0.00397,-0.00397 q 0.1230463,-0.00793 0.2302158,-0.059537 M 1.1639501,2.003238 Q 1.0488405,2.1937618 1.1123484,2.4120695 l 0.023813,0.079388 0.011906,0.011906 q 0.067477,0.1468623 0.20243,0.234188 l 0.011906,0.00397 0.015875,0.015849 h 0.00794 q 0.1468649,0.075417 0.3016646,0.063511 h 0.00794 L 1.791084,2.8049795 1.80299,2.8010095 Q 2.0133525,2.7414705 2.1284622,2.5469753 l 0.2103728,-0.36517 q 0.2024327,0.1627399 0.2024327,0.3889851 0,0.2659433 -0.2818183,0.448527 -0.2738808,0.1865577 -0.6708034,0.1865577 -0.3969279,0 -0.67477476,-0.1865577 Q 0.6360217,2.8367337 0.6360217,2.5707904 q 0,-0.265938 0.27784954,-0.4485216 0.11510696,-0.07542 0.25006296,-0.1190784"
     id="path5"
     style="fill:#8da5f3;fill-opacity:1;stroke-width:0.0793853"
     fill="#ffffff" /></svg>
