<?xml version="1.0" encoding="UTF-8" standalone="no"?>
<!-- Created with Inkscape (http://www.inkscape.org/) -->

<svg
   width="3.1773255mm"
   height="3.9997721mm"
   viewBox="0 0 3.1773255 3.9997721"
   version="1.1"
   id="svg1"
   xml:space="preserve"
   xmlns="http://www.w3.org/2000/svg"
   xmlns:svg="http://www.w3.org/2000/svg"><defs
     id="defs1" /><path
     stroke="none"
     d="M 1.6124459,1.6975819 1.1281975,1.2609639 Q 1.0130879,1.1537917 0.98927275,1.0426535 0.97339775,0.97120804 0.9932415,0.8957912 L 1.0448432,0.77274408 1.2750571,0.37581617 Q 1.3901668,0.18132361 1.5965682,0.08606303 L 1.7474019,0.03049259 Q 2.0649416,-0.05683049 2.3467572,0.10590942 2.6285755,0.26864669 2.71987,0.59016041 l 0.019844,0.10716948 q 0.019844,0.21830771 0.1270132,0.42074051 0.047633,0.087323 0.1548025,0.186555 0.091292,0.083354 0.091292,0.2183077 0.011906,0.1389248 -0.079386,0.2381568 L 2.9143599,1.8484156 2.8071878,1.8682593 Q 2.6801745,1.8761968 2.58888,1.7928425 2.4817106,1.6936105 2.4102651,1.5824723 L 1.9220454,2.4279245 q -0.067477,0.1151096 -0.1905238,0.150831 h -0.05557 L 1.4933648,2.5470003 1.4814586,2.535094 Q 1.4020756,2.4874637 1.3623802,2.4001406 L 1.3425365,2.3564764 Q 1.3068124,2.2254918 1.3742891,2.1103848 L 1.6124459,1.6975819 m 1.4448075,0.3453236 q 0.1309873,0.234188 0.1190784,0.5160036 v 0.00794 0.015902 0.067479 0.067477 0.00794 0.015875 q 0.023812,0.5715741 -0.5477563,0.9565931 l -0.011906,0.00794 q -0.4207404,0.2937246 -1.0280358,0.2937246 -0.60729815,0 -1.02803856,-0.2937246 l 0.003969,0.00397 Q -0.02288549,3.3249943 9.2965015e-4,2.741514 V 2.7177015 2.6502221 2.5827455 2.558933 Q -0.02288284,1.9754526 0.56456359,1.5904336 l 0.0476303,-0.023813 Q 0.76302754,1.4673891 0.93767635,1.40785 l 0.03175,0.027786 0.11114355,0.099229 Q 0.89401216,1.594405 0.7392124,1.7015745 v -0.00397 Q 0.30259169,1.9833928 0.31846934,2.4120733 0.3026208,2.8407512 0.7392124,3.1265383 1.0885047,3.364695 1.5886334,3.364695 q 0.5001259,0 0.8454522,-0.2381567 l 0.00397,-0.00397 Q 2.8746724,2.8367825 2.8587974,2.4120733 2.8667349,2.2493308 2.8071957,2.1104087 l 0.015902,-0.00397 0.00397,-0.00397 q 0.1230471,-0.00794 0.2302166,-0.059539 M 1.163948,2.0032392 Q 1.0488384,2.193763 1.1123463,2.4120707 l 0.023813,0.079388 0.011906,0.011906 q 0.067477,0.1468622 0.20243,0.234188 l 0.011906,0.00397 0.015875,0.015849 h 0.00794 q 0.1468649,0.075417 0.3016647,0.063511 h 0.00794 l 0.09526,-0.015901 0.011906,-0.00397 Q 2.0133505,2.7414716 2.1284601,2.5469764 L 2.3388329,2.1818065 q 0.2024327,0.1627399 0.2024327,0.3889851 0,0.2659433 -0.2818183,0.4485269 -0.2738807,0.1865577 -0.6708034,0.1865577 -0.3969279,0 -0.67477476,-0.1865577 -0.27784953,-0.1825836 -0.27784953,-0.4485269 0,-0.265938 0.27784953,-0.4485217 0.11510696,-0.07542 0.25006296,-0.1190783"
     id="path2-6"
     style="fill:#fc7f7f;fill-opacity:1;stroke-width:0.0793853"
     fill="#ffffff" /></svg>
