<?xml version="1.0" encoding="UTF-8" standalone="no"?>
<!-- Created with Inkscape (http://www.inkscape.org/) -->

<svg
   width="7.7882104mm"
   height="7.7883563mm"
   viewBox="0 0 7.7882104 7.7883564"
   version="1.1"
   id="svg1"
   xml:space="preserve"
   xmlns="http://www.w3.org/2000/svg"
   xmlns:svg="http://www.w3.org/2000/svg"><defs
     id="defs1" /><path
     d="m 7.6422051,3.0667402 c 0.097312,0.097312 0.1460054,0.2109288 0.1460054,0.3407039 V 4.380973 c 0,0.137928 -0.048916,0.2555466 -0.1460054,0.3529326 C 7.5448931,4.8231386 7.4312758,4.867756 7.3015014,4.867756 H 3.4073766 C 3.2694487,4.867756 3.1518301,4.823287 3.054444,4.7339056 2.965211,4.6365935 2.9205937,4.5188992 2.9205937,4.380973 V 3.4196137 c 0,-0.137928 0.044469,-0.2555466 0.1338503,-0.3529326 0.097312,-0.097312 0.2150064,-0.1460046 0.3529326,-0.1460046 h 3.8941248 c 0.1297743,0 0.2433915,0.048917 0.3407037,0.1460046 M 7.7882105,1.4603562 c 0,0.137928 -0.048916,0.2555465 -0.1460054,0.3529323 -0.097312,0.089233 -0.2109293,0.1338504 -0.3407037,0.1338504 H 3.4073766 c -0.1379279,0 -0.2555465,-0.044469 -0.3529326,-0.1338504 C 2.965211,1.7159765 2.9205937,1.5982821 2.9205937,1.4603562 V 0.49899658 c 0,-0.137928 0.044469,-0.2555466 0.1338503,-0.3529327 C 3.151756,0.04875188 3.2694504,5.9379074e-5 3.4073766,5.9379074e-5 h 3.8941248 c 0.1297743,0 0.2433915,0.04891700093 0.3407037,0.146004500926 0.097312,0.097312 0.1460054,0.2109288 0.1460054,0.3407036 V 1.4602968 m -5.8411905,0 c 0,0.1379279 -0.048917,0.2555465 -0.1460046,0.3529326 -0.097312,0.089233 -0.2109288,0.1338503 -0.3407038,0.1338503 H 0.48678223 c -0.137928,0 -0.2555465,-0.044469 -0.3529323,-0.1338503 C 0.04461693,1.7159174 -4.7402858e-7,1.598223 -4.7402858e-7,1.4602968 V 0.49893708 C -4.7402858e-7,0.36100918 0.04446853,0.24339058 0.13384993,0.14600448 0.23116193,0.04869248 0.34885633,-2.0926407e-8 0.48678223,-2.0926407e-8 H 1.4603116 C 1.5900843,-2.0926407e-8 1.7037039,0.04891698 1.8010154,0.14600448 1.8983274,0.24331648 1.94702,0.35693328 1.94702,0.48670838 V 1.4602374 m 0,5.8411877 c 0,0.1379046 -0.048917,0.2555465 -0.1460046,0.3529323 -0.097312,0.089233 -0.2109288,0.1338503 -0.3407038,0.1338503 H 0.48678223 c -0.137928,0 -0.2555465,-0.044618 -0.3529323,-0.1338503 C 0.04461693,7.5570224 -4.7402858e-7,7.4393743 -4.7402858e-7,7.3014251 V 6.3402679 c 0,-0.137928 0.0444690040286,-0.2555466 0.13385040402858,-0.3529326 0.097312,-0.097312 0.2150064,-0.1460046 0.3529323,-0.1460046 H 1.4603116 c 0.1297727,0 0.2433923,0.048917 0.3407038,0.1460046 C 1.8983274,6.0846473 1.94702,6.198264 1.94702,6.3280388 V 7.3015733 M 3.0544144,7.6545056 C 2.9651818,7.5571702 2.9205641,7.4395225 2.9205641,7.3015733 V 6.3402679 c 0,-0.137928 0.044469,-0.2555466 0.1338503,-0.3529326 0.097312,-0.097312 0.2150064,-0.1460046 0.3529326,-0.1460046 h 3.8941249 c 0.1297742,0 0.2433915,0.048917 0.3407037,0.1460046 0.097312,0.097312 0.1460054,0.2109287 0.1460054,0.3407035 v 0.9735345 c 0,0.1379047 -0.048916,0.2555466 -0.1460054,0.3529323 C 7.5448635,7.7437386 7.4312462,7.788356 7.3014719,7.788356 h -3.894125 c -0.1379279,0 -0.2555465,-0.044618 -0.3529326,-0.1338504 M 1.9470198,4.3810103 c 0,0.137928 -0.048917,0.2555465 -0.1460045,0.3529323 C 1.7037033,4.8231756 1.5900865,4.867793 1.4603114,4.867793 H 0.48678213 c -0.137928,0 -0.2555466,-0.044469 -0.3529323,-0.1338504 C 0.04461683,4.6366305 -5.7402858e-7,4.5189362 -5.7402858e-7,4.3810103 V 3.4196507 C -5.7402858e-7,3.2817227 0.04446843,3.1641041 0.13384983,3.0667181 0.23116183,2.969406 0.34885623,2.9207135 0.48678213,2.9207135 H 1.4603114 c 0.1297728,0 0.2433924,0.048917 0.3407039,0.1460046 0.097312,0.097312 0.1460045,0.2109287 0.1460045,0.3407035 v 0.9735293"
     style="fill:#8eef97;fill-opacity:1;stroke:none;stroke-width:0.243383"
     id="path1-4" /></svg>
