<?xml version="1.0" encoding="UTF-8" standalone="no"?>
<!-- Created with Inkscape (http://www.inkscape.org/) -->

<svg
   width="8.3682585mm"
   height="12.152068mm"
   viewBox="0 0 8.3682585 12.152068"
   version="1.1"
   id="svg1"
   xml:space="preserve"
   xmlns="http://www.w3.org/2000/svg"
   xmlns:svg="http://www.w3.org/2000/svg"><defs
     id="defs1" /><path
     d="m 5.9964317,3.2055846 a 2.5570388,2.0266467 0 0 0 -3.618211,0"
     id="path4-1"
     style="fill:none;stroke:#8eef97;stroke-width:1.13823;stroke-linecap:round;stroke-linejoin:round;stroke-opacity:1" /><path
     d="m 7.7991434,1.7717319 a 5.1140779,4.0532937 0 0 0 -7.23002769,0"
     id="path5-5"
     style="fill:none;stroke:#8eef97;stroke-width:1.13823;stroke-linecap:round;stroke-linejoin:round;stroke-opacity:1" /><path
     d="m 7.8811465,7.430452 c 0.097312,0.097312 0.1460054,0.2109288 0.1460054,0.3407039 v 0.9735289 c 0,0.137928 -0.048916,0.2555466 -0.1460054,0.3529326 -0.097312,0.089233 -0.2109293,0.1338504 -0.3407037,0.1338504 H 3.646318 c -0.1379279,0 -0.2555465,-0.044469 -0.3529326,-0.1338504 C 3.2041524,9.0003053 3.1595351,8.882611 3.1595351,8.7446848 V 7.7833255 c 0,-0.137928 0.044469,-0.2555466 0.1338503,-0.3529326 0.097312,-0.097312 0.2150064,-0.1460046 0.3529326,-0.1460046 h 3.8941248 c 0.1297743,0 0.2433915,0.048917 0.3407037,0.1460046 M 8.0271519,5.824068 c 0,0.137928 -0.048916,0.2555465 -0.1460054,0.3529323 -0.097312,0.089233 -0.2109293,0.1338504 -0.3407037,0.1338504 H 3.646318 c -0.1379279,0 -0.2555465,-0.044469 -0.3529326,-0.1338504 C 3.2041524,6.0796883 3.1595351,5.9619939 3.1595351,5.824068 V 4.8627084 c 0,-0.137928 0.044469,-0.2555466 0.1338503,-0.3529327 0.097312,-0.097312 0.2150064,-0.1460045 0.3529326,-0.1460045 h 3.8941248 c 0.1297743,0 0.2433915,0.048917 0.3407037,0.1460045 0.097312,0.097312 0.1460054,0.2109288 0.1460054,0.3407036 v 0.9735293 m -5.8411905,0 c 0,0.1379279 -0.048917,0.2555465 -0.1460046,0.3529326 C 1.9426448,6.2661742 1.829028,6.3107915 1.699253,6.3107915 H 0.72572361 c -0.137928,0 -0.2555465,-0.044469 -0.3529323,-0.1338503 -0.089233,-0.097312 -0.1338504,-0.2150064 -0.1338504,-0.3529326 V 4.8626489 c 0,-0.1379279 0.044469,-0.2555465 0.1338504,-0.3529326 0.097312,-0.097312 0.2150064,-0.1460045 0.3529323,-0.1460045 H 1.699253 c 0.1297727,0 0.2433923,0.048917 0.3407038,0.1460045 0.097312,0.097312 0.1460046,0.2109288 0.1460046,0.3407039 v 0.973529 m 0,5.8411868 c 0,0.137905 -0.048917,0.255547 -0.1460046,0.352933 -0.097312,0.08923 -0.2109288,0.13385 -0.3407038,0.13385 H 0.72572361 c -0.137928,0 -0.2555465,-0.04462 -0.3529323,-0.13385 -0.089233,-0.09734 -0.1338504,-0.214983 -0.1338504,-0.352933 v -0.961157 c 0,-0.137928 0.044469,-0.255546 0.1338504,-0.352932 0.097312,-0.09731 0.2150064,-0.146005 0.3529323,-0.146005 H 1.699253 c 0.1297727,0 0.2433923,0.04892 0.3407038,0.146005 0.097312,0.09731 0.1460046,0.210928 0.1460046,0.340703 v 0.973535 m 1.1073944,0.352932 C 3.2041232,11.920882 3.1595055,11.803234 3.1595055,11.665285 v -0.961306 c 0,-0.137928 0.044469,-0.255546 0.1338503,-0.352932 0.097312,-0.09731 0.2150064,-0.146005 0.3529326,-0.146005 h 3.8941249 c 0.1297742,0 0.2433915,0.04892 0.3407037,0.146005 0.097312,0.09731 0.1460054,0.210928 0.1460054,0.340703 v 0.973535 c 0,0.137904 -0.048916,0.255546 -0.1460054,0.352932 -0.097312,0.08923 -0.2109294,0.13385 -0.3407037,0.13385 h -3.894125 c -0.1379279,0 -0.2555465,-0.04462 -0.3529326,-0.13385 M 2.1859612,8.7447221 c 0,0.137928 -0.048917,0.2555465 -0.1460045,0.3529323 -0.097312,0.089233 -0.2109288,0.1338504 -0.3407039,0.1338504 H 0.72572351 c -0.137928,0 -0.2555466,-0.044469 -0.3529323,-0.1338504 C 0.28355821,9.0003424 0.23894081,8.882648 0.23894081,8.7447221 V 7.7833625 c 0,-0.137928 0.044469,-0.2555466 0.1338504,-0.3529326 0.097312,-0.097312 0.2150064,-0.1460046 0.3529323,-0.1460046 H 1.6992528 c 0.1297728,0 0.2433924,0.048917 0.3407039,0.1460046 0.097312,0.097312 0.1460045,0.2109287 0.1460045,0.3407035 v 0.9735293"
     style="fill:#8eef97;fill-opacity:1;stroke:none;stroke-width:0.243383"
     id="path1-4" /></svg>
