<?xml version="1.0" encoding="UTF-8" standalone="no"?>
<!-- Created with Inkscape (http://www.inkscape.org/) -->

<svg
   width="3.1773255mm"
   height="3.9997721mm"
   viewBox="0 0 3.1773255 3.9997721"
   version="1.1"
   id="svg1"
   xml:space="preserve"
   xmlns="http://www.w3.org/2000/svg"
   xmlns:svg="http://www.w3.org/2000/svg"><defs
     id="defs1" /><path
     stroke="none"
     d="M 1.6124445,1.697579 1.1281961,1.260961 Q 1.0130865,1.1537888 0.98927133,1.0426506 0.97339633,0.97120523 0.99324008,0.89578839 L 1.0448418,0.77274127 1.2750557,0.37581336 Q 1.3901654,0.1813208 1.5965668,0.08606022 L 1.7474005,0.03048978 q 0.3175397,-0.08732308 0.5993553,0.07541683 0.2818183,0.16273727 0.3731128,0.484251 l 0.019844,0.10716947 q 0.019844,0.21830771 0.1270133,0.42074042 0.047633,0.087323 0.1548024,0.186555 0.091292,0.083354 0.091292,0.2183077 0.011906,0.1389248 -0.079386,0.2381568 L 2.9143585,1.8484127 2.8071864,1.8682564 Q 2.6801731,1.8761939 2.5888787,1.7928396 2.4817092,1.6936076 2.4102638,1.5824694 L 1.922044,2.4279216 Q 1.854567,2.5430312 1.7315202,2.5787526 h -0.05557 L 1.4933635,2.5469974 1.4814572,2.5350911 Q 1.4020743,2.4874608 1.3623788,2.4001377 L 1.3425351,2.3564735 Q 1.306811,2.2254889 1.3742877,2.1103819 L 1.6124445,1.697579 M 3.057252,2.0429026 q 0.1309873,0.234188 0.1190784,0.5160036 v 0.00794 0.015902 0.067479 0.067477 0.00794 0.015875 q 0.023813,0.5715741 -0.5477563,0.9565931 l -0.011906,0.00794 Q 2.1959274,3.9997689 1.588632,3.9997689 q -0.60729817,0 -1.02803858,-0.2937246 l 0.003969,0.00397 Q -0.0228869,3.3249914 9.2824273e-4,2.7415111 V 2.7176986 2.6502192 2.5827426 2.5589301 Q -0.02288426,1.9754497 0.56456217,1.5904307 l 0.0476303,-0.023813 Q 0.76302613,1.4673862 0.93767494,1.4078471 l 0.03175,0.027786 0.11114356,0.099229 q -0.18655775,0.05954 -0.34135752,0.1667095 v -0.00397 Q 0.30259028,1.9833887 0.31846793,2.4120692 0.30261943,2.8407471 0.73921098,3.1265342 1.0885033,3.3646909 1.588632,3.3646909 q 0.500126,0 0.8454522,-0.2381567 l 0.00397,-0.00397 Q 2.874671,2.8367796 2.858796,2.4120704 2.8667335,2.2493279 2.8071943,2.1104058 l 0.015902,-0.00397 0.00397,-0.00397 q 0.1230471,-0.00794 0.2302166,-0.059539 M 1.1639466,2.0032363 Q 1.048837,2.1937601 1.1123449,2.4120678 l 0.023813,0.079388 0.011906,0.011906 q 0.067477,0.1468622 0.20243,0.234188 l 0.011906,0.00397 0.015875,0.015849 h 0.00794 q 0.1468649,0.075417 0.3016647,0.063511 h 0.00794 l 0.095261,-0.015901 0.011906,-0.00397 Q 2.0133491,2.7414687 2.1284587,2.5469735 L 2.3388315,2.1818036 q 0.2024328,0.1627399 0.2024328,0.3889851 0,0.2659433 -0.2818183,0.4485269 -0.2738808,0.1865577 -0.6708034,0.1865577 -0.396928,0 -0.67477487,-0.1865577 Q 0.63601819,2.836732 0.63601819,2.5707887 q 0,-0.265938 0.27784954,-0.4485217 Q 1.0289747,2.0468475 1.1639307,2.0031887"
     id="path6"
     style="fill:#8eef97;fill-opacity:1;stroke-width:0.0793853"
     fill="#ffffff" /></svg>
